<?xml version="1.0" encoding="UTF-8"?>
<!DOCTYPE svg PUBLIC "-//W3C//DTD SVG 1.1//EN" "http://www.w3.org/Graphics/SVG/1.1/DTD/svg11.dtd">
<svg xmlns="http://www.w3.org/2000/svg" version="1.1" width="460px" height="564px" style="shape-rendering:geometricPrecision; text-rendering:geometricPrecision; image-rendering:optimizeQuality; fill-rule:evenodd; clip-rule:evenodd" xmlns:xlink="http://www.w3.org/1999/xlink">
<g><path style="opacity:0.937" fill="#000000" d="M 342.5,54.5 C 354.057,51.185 361.223,55.185 364,66.5C 364.5,75.4938 364.666,84.4938 364.5,93.5C 376.17,94.5984 387.837,94.5984 399.5,93.5C 409.084,92.3146 416.918,95.3146 423,102.5C 426.582,111.834 423.749,118.334 414.5,122C 397.855,123.151 381.189,123.984 364.5,124.5C 364.259,134.356 362.759,144.022 360,153.5C 351.544,162.976 343.544,162.643 336,152.5C 334.583,143.248 334.083,133.915 334.5,124.5C 306.158,124.333 277.825,124.667 249.5,125.5C 249.287,135.244 248.454,144.91 247,154.5C 241.093,163.266 233.593,164.766 224.5,159C 221.805,154.915 220.305,150.415 220,145.5C 219.5,138.508 219.334,131.508 219.5,124.5C 202.707,124.484 186.04,122.984 169.5,120C 162.923,115.441 160.757,109.274 163,101.5C 165.742,97.8841 169.242,95.3841 173.5,94C 189.176,93.6529 204.843,93.1529 220.5,92.5C 221.096,83.1509 221.93,73.8175 223,64.5C 230.948,53.0112 239.281,52.6778 248,63.5C 249.921,68.1347 250.754,72.9681 250.5,78C 250.225,83.1764 249.892,88.343 249.5,93.5C 277.847,94.8074 306.18,94.8074 334.5,93.5C 334.135,83.4434 334.635,73.4434 336,63.5C 337.686,60.117 339.853,57.117 342.5,54.5 Z"/></g>
<g><path style="opacity:0.919" fill="#000000" d="M 141.5,55.5 C 155.36,55.5402 160.193,62.2068 156,75.5C 146.438,94.2885 135.104,111.955 122,128.5C 121.077,130.034 120.577,131.701 120.5,133.5C 126.104,152.813 132.604,171.813 140,190.5C 145.572,211.127 148.739,232.127 149.5,253.5C 148.8,271.493 148.3,289.493 148,307.5C 146.36,331.075 141.027,353.741 132,375.5C 128.999,381.512 124.833,386.678 119.5,391C 103.259,400.808 85.5919,404.808 66.5,403C 58.1384,399.927 55.8051,394.26 59.5,386C 61.1667,385 62.8333,384 64.5,383C 79.0547,382.944 92.7214,379.611 105.5,373C 109.238,369.461 112.071,365.294 114,360.5C 122.668,330.153 126.502,299.153 125.5,267.5C 125.657,257.345 125.157,247.345 124,237.5C 119.075,246.353 113.409,254.686 107,262.5C 93.8711,277.964 80.3711,293.131 66.5,308C 57.0073,314.944 49.8407,313.11 45,302.5C 44.3346,297.819 45.3346,293.486 48,289.5C 62,273.5 76,257.5 90,241.5C 99.0647,226.61 107.898,211.61 116.5,196.5C 111.76,182.447 106.927,168.447 102,154.5C 92.3504,169.491 81.1837,183.324 68.5,196C 57.716,198.785 51.3826,194.785 49.5,184C 50.1037,181.416 50.9371,178.916 52,176.5C 64.2567,159.654 76.7567,142.988 89.5,126.5C 81.266,110.779 72.4326,95.446 63,80.5C 58.7515,69.1063 62.5848,63.6063 74.5,64C 81.0422,68.8748 86.5422,74.7082 91,81.5C 95.9484,89.7355 100.615,98.0689 105,106.5C 114.499,92.8397 123.499,78.8397 132,64.5C 134.406,60.5915 137.572,57.5915 141.5,55.5 Z"/></g>
<g><path style="opacity:0.94" fill="#000000" d="M 204.5,175.5 C 216.822,176.379 229.155,177.212 241.5,178C 282.838,178.815 324.171,179.815 365.5,181C 374.197,181.298 382.864,181.965 391.5,183C 393.081,183.707 394.581,184.54 396,185.5C 397.299,188.147 398.632,190.814 400,193.5C 398.806,231.152 397.64,268.819 396.5,306.5C 397.48,335.496 397.647,364.496 397,393.5C 395.329,403.424 389.496,407.59 379.5,406C 375.934,405.3 373.1,403.467 371,400.5C 369.431,396.297 368.598,391.964 368.5,387.5C 318.459,387.38 268.459,386.047 218.5,383.5C 217.669,388.487 216.836,393.487 216,398.5C 207.729,409.075 199.729,408.741 192,397.5C 190.598,329.505 190.265,261.505 191,193.5C 191.998,184.693 196.498,178.693 204.5,175.5 Z M 219.5,207.5 C 238.543,207.843 257.543,208.51 276.5,209.5C 278.293,227.78 278.959,246.114 278.5,264.5C 258.477,264.228 238.477,264.561 218.5,265.5C 218.18,246.091 218.513,226.757 219.5,207.5 Z M 306.5,209.5 C 327.493,210.19 348.493,210.523 369.5,210.5C 369.204,229.17 368.704,247.837 368,266.5C 347.62,264.223 327.12,263.223 306.5,263.5C 306.5,245.5 306.5,227.5 306.5,209.5 Z M 233.5,292.5 C 248.5,292.5 263.5,292.5 278.5,292.5C 279.304,314.49 279.637,336.49 279.5,358.5C 259.473,358.542 239.473,357.875 219.5,356.5C 219.5,335.5 219.5,314.5 219.5,293.5C 224.363,293.819 229.03,293.486 233.5,292.5 Z M 307.5,292.5 C 327.185,292.676 346.851,293.343 366.5,294.5C 366.925,315.841 367.591,337.175 368.5,358.5C 348.5,358.5 328.5,358.5 308.5,358.5C 308.4,336.496 308.067,314.496 307.5,292.5 Z"/></g>
<g><path style="opacity:0.796" fill="#000000" d="M 70.5,451.5 C 73.1667,451.5 75.8333,451.5 78.5,451.5C 78.5,461.167 78.5,470.833 78.5,480.5C 82.5,480.5 86.5,480.5 90.5,480.5C 90.5,482.833 90.5,485.167 90.5,487.5C 83.9102,487.811 77.4102,487.478 71,486.5C 70.5001,474.838 70.3335,463.171 70.5,451.5 Z"/></g>
<g><path style="opacity:0.778" fill="#000000" d="M 206.5,451.5 C 209.167,451.5 211.833,451.5 214.5,451.5C 214.666,461.506 214.5,471.506 214,481.5C 213.12,486.862 209.953,489.196 204.5,488.5C 199.166,488.535 197.166,485.868 198.5,480.5C 201.394,480.958 203.894,480.291 206,478.5C 206.5,469.506 206.666,460.506 206.5,451.5 Z"/></g>
<g><path style="opacity:0.744" fill="#000000" d="M 98.5,459.5 C 111.248,457.931 116.581,463.598 114.5,476.5C 109.5,476.5 104.5,476.5 99.5,476.5C 99.238,477.978 99.5713,479.311 100.5,480.5C 102.059,481.074 103.559,481.74 105,482.5C 107.621,481.009 110.455,480.342 113.5,480.5C 113.662,482.527 113.495,484.527 113,486.5C 96.6234,492.453 89.2901,486.786 91,469.5C 92.2454,465.106 94.7454,461.772 98.5,459.5 Z M 102.5,465.5 C 105.324,465.989 106.657,467.656 106.5,470.5C 104.167,470.5 101.833,470.5 99.5,470.5C 99.31,468.041 100.31,466.374 102.5,465.5 Z"/></g>
<g><path style="opacity:0.768" fill="#000000" d="M 123.5,459.5 C 127.182,459.335 130.848,459.501 134.5,460C 135.931,460.465 137.097,461.299 138,462.5C 138.5,470.827 138.666,479.16 138.5,487.5C 136.208,487.756 134.041,487.423 132,486.5C 123.661,490.914 118.495,488.58 116.5,479.5C 116.736,475.429 118.736,472.596 122.5,471C 125.553,470.821 128.553,470.321 131.5,469.5C 130.833,467.5 129.5,466.167 127.5,465.5C 124.766,467.371 121.766,468.371 118.5,468.5C 117.413,463.773 119.08,460.773 123.5,459.5 Z M 125.5,476.5 C 127.5,476.5 129.5,476.5 131.5,476.5C 131.374,479.468 129.874,481.468 127,482.5C 125.681,480.75 125.181,478.75 125.5,476.5 Z"/></g>
<g><path style="opacity:0.713" fill="#000000" d="M 152.5,459.5 C 155.167,459.5 157.833,459.5 160.5,459.5C 160.5,462.167 160.5,464.833 160.5,467.5C 157.03,466.875 154.196,467.875 152,470.5C 151.501,476.157 151.334,481.824 151.5,487.5C 148.833,487.5 146.167,487.5 143.5,487.5C 143.5,478.5 143.5,469.5 143.5,460.5C 146.713,460.81 149.713,460.477 152.5,459.5 Z"/></g>
<g><path style="opacity:0.721" fill="#000000" d="M 172.5,459.5 C 177.535,458.502 181.702,459.835 185,463.5C 186.363,471.429 186.863,479.429 186.5,487.5C 183.5,487.5 180.5,487.5 177.5,487.5C 177.666,481.491 177.499,475.491 177,469.5C 176.581,468.328 175.915,467.328 175,466.5C 173.667,467.833 172.333,469.167 171,470.5C 170.501,476.157 170.334,481.824 170.5,487.5C 167.833,487.5 165.167,487.5 162.5,487.5C 162.5,478.5 162.5,469.5 162.5,460.5C 165.394,460.042 167.894,460.709 170,462.5C 171.045,461.627 171.878,460.627 172.5,459.5 Z"/></g>
<g><path style="opacity:0.751" fill="#000000" d="M 224.5,459.5 C 228.182,459.335 231.848,459.501 235.5,460C 237.815,461.109 239.315,462.943 240,465.5C 240.5,472.826 240.666,480.159 240.5,487.5C 237.881,487.768 235.381,487.435 233,486.5C 222.018,491.199 217.352,487.532 219,475.5C 222.302,471.076 226.802,469.409 232.5,470.5C 232.723,467.886 231.556,466.219 229,465.5C 226.135,467.471 223.135,468.137 220,467.5C 219.202,463.419 220.702,460.753 224.5,459.5 Z M 227.5,476.5 C 229.167,476.5 230.833,476.5 232.5,476.5C 231.745,481.596 229.411,482.596 225.5,479.5C 226.193,478.482 226.859,477.482 227.5,476.5 Z"/></g>
<g><path style="opacity:0.805" fill="#000000" d="M 254.5,459.5 C 264.874,458.021 269.874,462.521 269.5,473C 269.793,479.002 267.793,484.002 263.5,488C 259.683,489.023 256.183,488.523 253,486.5C 252.501,490.152 252.335,493.818 252.5,497.5C 250.167,497.5 247.833,497.5 245.5,497.5C 245.5,485.167 245.5,472.833 245.5,460.5C 248.079,460.083 250.246,460.75 252,462.5C 253.045,461.627 253.878,460.627 254.5,459.5 Z M 255.5,467.5 C 259.391,467.714 261.391,469.88 261.5,474C 260.391,476.047 259.724,478.213 259.5,480.5C 253.633,479.797 251.467,476.464 253,470.5C 254.045,469.627 254.878,468.627 255.5,467.5 Z"/></g>
<g><path style="opacity:0.715" fill="#000000" d="M 277.5,459.5 C 281.514,459.334 285.514,459.501 289.5,460C 290.667,461.167 291.833,462.333 293,463.5C 294.401,471.415 294.901,479.415 294.5,487.5C 291.552,487.777 288.719,487.444 286,486.5C 281.478,489.312 277.145,488.979 273,485.5C 269.207,474.115 273.373,469.115 285.5,470.5C 285.756,468.088 284.756,466.421 282.5,465.5C 279.473,467.529 276.14,468.529 272.5,468.5C 272.338,466.473 272.505,464.473 273,462.5C 274.652,461.601 276.152,460.601 277.5,459.5 Z M 280.5,476.5 C 282.167,476.5 283.833,476.5 285.5,476.5C 285.574,480.701 283.741,482.035 280,480.5C 279.421,479.072 279.588,477.738 280.5,476.5 Z"/></g>
<g><path style="opacity:0.778" fill="#000000" d="M 308.5,459.5 C 311.518,459.335 314.518,459.502 317.5,460C 319.049,461.214 320.215,462.714 321,464.5C 321.5,472.159 321.666,479.826 321.5,487.5C 319.167,487.5 316.833,487.5 314.5,487.5C 314.666,482.156 314.499,476.823 314,471.5C 312.436,466.541 310.103,466.207 307,470.5C 306.501,476.157 306.334,481.824 306.5,487.5C 303.833,487.5 301.167,487.5 298.5,487.5C 298.5,478.5 298.5,469.5 298.5,460.5C 301.394,460.042 303.894,460.709 306,462.5C 306.698,461.309 307.531,460.309 308.5,459.5 Z"/></g>
<g><path style="opacity:0.745" fill="#000000" d="M 332.5,459.5 C 344.93,457.93 350.263,463.263 348.5,475.5C 343.544,476.494 338.544,476.827 333.5,476.5C 333.662,479.669 335.328,481.669 338.5,482.5C 341.399,481.358 344.399,480.692 347.5,480.5C 347.662,482.527 347.495,484.527 347,486.5C 332.23,492.127 324.897,487.127 325,471.5C 325.317,466.038 327.817,462.038 332.5,459.5 Z M 335.5,466.5 C 338.278,466.022 340.278,467.022 341.5,469.5C 338.833,470.833 336.167,470.833 333.5,469.5C 334.193,468.482 334.859,467.482 335.5,466.5 Z"/></g>
<g><path style="opacity:0.714" fill="#000000" d="M 356.5,459.5 C 360.182,459.335 363.848,459.501 367.5,460C 371,467.167 369.167,469 362,465.5C 360.294,466.308 359.461,467.641 359.5,469.5C 368.61,470.771 371.777,475.771 369,484.5C 364.909,488.305 360.076,489.472 354.5,488C 353.584,487.626 352.75,487.126 352,486.5C 351.503,484.19 351.337,481.857 351.5,479.5C 354.23,479.473 356.73,480.14 359,481.5C 360.662,481.612 361.829,480.946 362.5,479.5C 360.446,477.806 358.112,476.639 355.5,476C 349.877,470.038 350.21,464.538 356.5,459.5 Z"/></g>
<g><path style="opacity:0.734" fill="#000000" d="M 379.5,459.5 C 391.93,457.93 397.263,463.263 395.5,475.5C 390.544,476.494 385.544,476.827 380.5,476.5C 380.731,479.9 382.564,481.9 386,482.5C 388.687,481.287 391.52,480.62 394.5,480.5C 394.662,482.527 394.495,484.527 394,486.5C 388.296,488.99 382.463,489.156 376.5,487C 371.465,480.913 370.298,474.08 373,466.5C 374.356,463.314 376.522,460.981 379.5,459.5 Z M 381.5,466.5 C 384.864,465.789 387.197,466.956 388.5,470C 385.773,470.818 383.106,470.652 380.5,469.5C 381.127,468.583 381.461,467.583 381.5,466.5 Z"/></g>
</svg>
