<?xml version="1.0" standalone="no"?>
<!DOCTYPE svg PUBLIC "-//W3C//DTD SVG 20010904//EN"
 "http://www.w3.org/TR/2001/REC-SVG-20010904/DTD/svg10.dtd">
<svg version="1.0" xmlns="http://www.w3.org/2000/svg"
 width="456.000000pt" height="456.000000pt" viewBox="0 0 456.000000 456.000000"
 preserveAspectRatio="xMidYMid meet">

<g transform="translate(0.000000,456.000000) scale(0.100000,-0.100000)"
fill="#000000" stroke="none">
<path d="M2989 3422 c-33 -29 -33 -31 -37 -130 -4 -92 -6 -101 -26 -106 -28
-8 -495 -7 -524 0 -21 6 -22 11 -20 88 3 116 -21 156 -92 156 -56 0 -72 -26
-83 -138 l-10 -102 -152 0 c-142 0 -154 -2 -186 -23 -43 -28 -51 -79 -20 -119
21 -27 63 -35 277 -54 l72 -6 7 -95 c8 -113 27 -144 88 -146 68 -2 95 52 96
191 l1 52 285 0 285 0 0 -80 c0 -101 16 -136 65 -146 19 -3 42 -4 50 0 28 10
54 68 60 135 11 110 -5 101 168 102 84 1 163 4 177 8 14 4 33 22 44 42 17 32
18 40 6 68 -21 51 -52 61 -193 61 -69 0 -139 3 -156 6 -30 6 -31 8 -32 63 -1
133 -23 184 -85 197 -26 5 -38 1 -65 -24z"/>
<path d="M1638 3402 c-12 -15 -54 -77 -91 -137 -38 -61 -78 -122 -90 -137
l-22 -27 -60 100 c-64 109 -130 179 -168 179 -28 0 -57 -28 -57 -55 0 -11 32
-76 71 -145 40 -69 82 -143 94 -165 l23 -40 -129 -174 c-100 -135 -129 -182
-129 -205 0 -37 7 -49 37 -65 44 -23 68 -14 128 50 31 34 81 97 112 141 30 43
57 78 58 76 9 -9 95 -267 95 -283 0 -10 -19 -51 -42 -89 -23 -39 -57 -97 -76
-130 -40 -68 -98 -140 -229 -283 -107 -118 -130 -157 -116 -199 13 -40 53 -61
89 -49 49 18 338 347 406 463 l25 43 6 -93 c9 -124 -8 -452 -28 -558 -19 -101
-48 -193 -74 -236 -29 -47 -108 -81 -214 -92 -95 -11 -127 -27 -127 -69 0 -45
32 -63 113 -63 169 0 304 68 363 182 69 135 103 332 111 648 5 225 5 241 -21
379 -15 83 -46 199 -72 275 -58 167 -94 278 -94 292 0 6 33 57 73 115 83 117
164 255 167 284 7 60 -21 95 -74 95 -25 0 -40 -7 -58 -28z"/>
<path d="M2074 2636 c-18 -8 -38 -29 -50 -52 -18 -37 -19 -65 -16 -713 1 -389
7 -681 12 -691 5 -9 24 -23 41 -30 58 -24 109 24 109 104 l0 38 68 -6 c37 -3
261 -9 498 -12 l432 -7 6 -39 c13 -83 95 -116 150 -62 l26 27 0 381 c0 210 5
509 11 665 11 303 8 330 -35 353 -13 8 -127 15 -316 20 -382 10 -837 27 -875
33 -16 3 -44 -1 -61 -9z m496 -203 c3 -3 7 -87 9 -189 l3 -184 -206 0 -206 0
0 83 c0 45 3 133 7 195 l6 113 191 -7 c105 -4 193 -9 196 -11z m610 -71 c0
-38 -3 -123 -7 -190 l-6 -121 -41 4 c-23 3 -116 7 -208 11 l-168 6 0 179 0
179 215 0 215 0 0 -68z m-596 -518 c3 -26 6 -127 6 -226 l0 -179 -172 6 c-95
3 -188 8 -205 11 l-33 5 0 209 0 209 153 4 c83 1 173 4 198 5 l46 2 7 -46z
m544 30 c32 -5 32 -6 33 -62 1 -31 4 -128 7 -215 l7 -157 -201 0 -201 0 -6
107 c-4 58 -7 160 -7 225 l0 119 168 -6 c92 -3 182 -8 200 -11z"/>
</g>
</svg>
